<svg width="210mm" height="297mm" version="1.1" viewBox="0 0 210 297" xmlns="http://www.w3.org/2000/svg">
 <defs>
  <style>.cls-1{fill:#45413c;opacity:0.15;}.cls-2,.cls-6{fill:#ffcebf;}.cls-2,.cls-5,.cls-8{stroke:#45413c;stroke-linecap:round;stroke-linejoin:round;}.cls-3{fill:#ff6196;}.cls-4{fill:#ff87af;}.cls-5{fill:none;}.cls-7{fill:#ffb59e;}.cls-8{fill:#f0f0f0;}.cls-9{fill:#e0366f;}</style>
 </defs>
 <g transform="matrix(.26458 0 0 .26458 48.664 96.578)">
  <g transform="translate(-3.2871)">
   <path d="m447.5 60h-440c-4.142 0-7.5 3.358-7.5 7.5v320c0 4.142 3.358 7.5 7.5 7.5h440c4.142 0 7.5-3.358 7.5-7.5v-320c0-4.142-3.358-7.5-7.5-7.5zm-7.5 320h-425v-305h425z"/>
   <path d="m47.5 355h360c4.142 0 7.5-3.358 7.5-7.5v-240c0-4.142-3.358-7.5-7.5-7.5h-360c-4.142 0-7.5 3.358-7.5 7.5v40c0 4.142 3.358 7.5 7.5 7.5s7.5-3.358 7.5-7.5v-32.5h345v225h-345v-162.5c0-4.142-3.358-7.5-7.5-7.5s-7.5 3.358-7.5 7.5v170c0 4.142 3.358 7.5 7.5 7.5z"/>
  </g>
  <g transform="matrix(3.1976 0 0 3.1976 146.89 151.85)">
   <ellipse id="_Ellipse_" class="cls-1" cx="20.93" cy="42.5" rx="13.5" ry="1.5" fill="#45413c" opacity=".15" data-name="&lt;Ellipse&gt;"/>
   <path id="_Path_" class="cls-2" d="m24.56 22.85a4.58 4.58 0 0 1-2.28 6.07l-15.28 6.95v-6.5a1 1 0 0 1 0.59-0.91l14.41-6.57a1.92 1.92 0 0 1 2.56 0.96z" fill="#ffcebf" stroke="#45413c" stroke-linecap="round" stroke-linejoin="round" data-name="&lt;Path&gt;"/>
   <path class="cls-3" d="m19.42 26.65a0.75 0.75 0 0 1-1-0.37l-1-2.28 7.54-3.43a1 1 0 0 1 1.32 0.5 2.24 2.24 0 0 1-1.12 3z" fill="#ff6196"/>
   <path class="cls-4" d="m24.93 22.13a1 1 0 0 1 1.32 0.49 1.11 1.11 0 0 1 0.07 0.16 2.26 2.26 0 0 0-0.07-1.71 1 1 0 0 0-1.32-0.5l-7.54 3.43 0.61 1.29z" fill="#ff87af"/>
   <path class="cls-5" d="m19.42 26.65a0.75 0.75 0 0 1-1-0.37l-1-2.28 7.54-3.43a1 1 0 0 1 1.32 0.5 2.24 2.24 0 0 1-1.12 3z" fill="none" stroke="#45413c" stroke-linecap="round" stroke-linejoin="round"/>
   <path class="cls-6" d="m7 39.44 18.81-8.56a4.59 4.59 0 0 0 2.29-6.06 1.93 1.93 0 0 0-2.55-1l-18.55 8.48z" fill="#ffcebf"/>
   <path class="cls-7" d="m28.41 25.79a4.55 4.55 0 0 1-2.52 2.9l-18.89 8.59v2.16l18.81-8.56a4.58 4.58 0 0 0 2.6-5.09z" fill="#ffb59e"/>
   <path class="cls-5" d="m7 39.44 18.81-8.56a4.59 4.59 0 0 0 2.29-6.06 1.93 1.93 0 0 0-2.55-1l-18.55 8.48z" fill="none" stroke="#45413c" stroke-linecap="round" stroke-linejoin="round"/>
   <path class="cls-3" d="m23 28.62a0.76 0.76 0 0 1-1-0.37l-1-2.28 7.54-3.43a1 1 0 0 1 1.32 0.49 2.25 2.25 0 0 1-1.12 3z" fill="#ff6196"/>
   <path class="cls-4" d="m28.46 24.09a1.1 1.1 0 0 1 1.39 0.65 2.26 2.26 0 0 0-0.07-1.74 1 1 0 0 0-1.32-0.49l-7.54 3.49 0.58 1.29z" fill="#ff87af"/>
   <path class="cls-5" d="m23 28.62a0.76 0.76 0 0 1-1-0.37l-1-2.28 7.54-3.43a1 1 0 0 1 1.32 0.49 2.25 2.25 0 0 1-1.12 3z" fill="none" stroke="#45413c" stroke-linecap="round" stroke-linejoin="round"/>
   <path class="cls-6" d="m7 41.63a1 1 0 0 0 1.3 0.95l17.53-5.44a4.59 4.59 0 0 0 3-5.73 1.93 1.93 0 0 0-2.41-1.27l-19.42 6.04z" fill="#ffcebf"/>
   <path class="cls-7" d="m26.2 35-19.2 5.94v0.69a1 1 0 0 0 1.3 0.95l17.53-5.44a4.58 4.58 0 0 0 3.23-4.72 4.59 4.59 0 0 1-2.86 2.58z" fill="#ffb59e"/>
   <path class="cls-5" d="m7 41.63a1 1 0 0 0 1.3 0.95l17.53-5.44a4.59 4.59 0 0 0 3-5.73 1.93 1.93 0 0 0-2.41-1.27l-19.42 6.04v0z" fill="none" stroke="#45413c" stroke-linecap="round" stroke-linejoin="round"/>
   <path class="cls-3" d="m23.28 34.54a0.76 0.76 0 0 1-0.94-0.5l-0.74-2.39 7.91-2.45a1 1 0 0 1 1.26 0.66 2.26 2.26 0 0 1-1.49 2.82z" fill="#ff6196"/>
   <path class="cls-4" d="m29.32 30.74a1 1 0 0 1 1.25 0.66 0.94 0.94 0 0 1 0 0.16 2.22 2.22 0 0 0 0.16-1.7 1 1 0 0 0-1.26-0.66l-7.87 2.45 0.4 1.35z" fill="#ff87af"/>
   <path class="cls-5" d="m23.28 34.54a0.76 0.76 0 0 1-0.94-0.5l-0.74-2.39 7.91-2.45a1 1 0 0 1 1.26 0.66 2.26 2.26 0 0 1-1.49 2.82z" fill="none" stroke="#45413c" stroke-linecap="round" stroke-linejoin="round"/>
   <path id="_Rectangle_" class="cls-3" transform="rotate(25.74 37.685 7.9226)" d="m36.86 3.73h1.63a2 2 0 0 1 2 2v5.88a0.5 0.5 0 0 1-0.5 0.5h-4.63a0.5 0.5 0 0 1-0.5-0.5v-5.88a2 2 0 0 1 2-2z" fill="#ff6196" data-name="&lt;Rectangle&gt;"/>
   <path class="cls-4" d="m33.77 10.69 0.58 0.28 1.74-3.62a2 2 0 0 1 2.67-0.93l1.47 0.71a2 2 0 0 1 0.68 0.55l0.25-0.51a2 2 0 0 0-0.93-2.67l-1.47-0.7a2 2 0 0 0-2.67 0.93l-2.55 5.27a0.5 0.5 0 0 0 0.23 0.69z" fill="#ff87af" data-name="&lt;Path&gt;"/>
   <path class="cls-5" transform="rotate(25.74 37.685 7.9226)" d="m36.86 3.73h1.63a2 2 0 0 1 2 2v5.88a0.5 0.5 0 0 1-0.5 0.5h-4.63a0.5 0.5 0 0 1-0.5-0.5v-5.88a2 2 0 0 1 2-2z" fill="none" stroke="#45413c" stroke-linecap="round" stroke-linejoin="round" stroke-width=".99995" data-name="&lt;Rectangle&gt;"/>
   <rect class="cls-8" transform="rotate(25.74 33.967 15.634)" x="33.02" y="11.26" width="1.88" height="8.75" fill="#f0f0f0" stroke="#45413c" stroke-linecap="round" stroke-linejoin="round" data-name="&lt;Rectangle&gt;"/>
   <path class="cls-3" d="m33 20.53c-0.64 1.45-2.18 3-5.35 2.32a9.45 9.45 0 0 0 2.65-3.63 1.5005 1.5005 0 1 1 2.7 1.31z" fill="#ff6196" data-name="&lt;Path&gt;"/>
   <path class="cls-9" d="m29 21.52a6.9 6.9 0 0 1-1.32 1.33c3.17 0.67 4.71-0.87 5.35-2.32a1.54 1.54 0 0 0-0.03-1.39 4.05 4.05 0 0 1-4 2.38z" fill="#e0366f" data-name="&lt;Path&gt;"/>
   <path class="cls-5" d="m33 20.53c-0.64 1.45-2.18 3-5.35 2.32a9.45 9.45 0 0 0 2.65-3.63 1.5005 1.5005 0 1 1 2.7 1.31z" fill="none" stroke="#45413c" stroke-linecap="round" stroke-linejoin="round" data-name="&lt;Path&gt;"/>
  </g>
  <path d="m150.91 66.58 78.528-71.812 67.758 71.592" fill="none" stroke="#000" stroke-linejoin="round" stroke-width="12.391"/>
  <g transform="matrix(1.546 -.74021 .74021 1.546 -390 -111.1)" fill="#8d8d8d" stroke="#000" stroke-width="3.409">
   <path d="m286 191.34 4.2682 30.239c1.8784 2.4262 5.7126 0.90746 6.0213-0.8499l-4.2921-30.21z"/>
   <ellipse transform="rotate(-18.032)" cx="215.05" cy="271.55" rx="9.4065" ry="5.4585" stroke-linejoin="round"/>
  </g>
  <path d="m143.92 201.96-42.989 24.82 42.852 25.537" fill="none" stroke="#000" stroke-linecap="round" stroke-linejoin="round" stroke-width="7.8025"/>
  <path d="m296.74 201.96 42.989 24.82-42.852 25.537" fill="none" stroke="#000" stroke-linecap="round" stroke-linejoin="round" stroke-width="7.8025"/>
 </g>
</svg>
